<svg xmlns="http://www.w3.org/2000/svg" width="1024" height="1024" viewBox="0 0 1024 1024"><rect width="100%" height="100%" fill="#333"/><image href="../png/BASE/FIELD/PANEL/ROADMAP/RMAP_005_1_0.png" width="1024" height="1024"/><g><title>0: Main_Entrance</title><circle cx="119.03336167503613" cy="461.886581436502" r="4" fill="cyan"/><text x="124.03336167503613" y="456.886581436502" fill="cyan" font-size="12" stroke="black" stroke-width=".3">T0</text></g><g><title>1: Main_InfoCenter</title><circle cx="274.29914020403584" cy="461.86190438178346" r="4" fill="cyan"/><text x="279.29914020403584" y="456.86190438178346" fill="cyan" font-size="12" stroke="black" stroke-width=".3">T1</text></g><g><title>2: Main_MeatFryShop</title><circle cx="424.31491635291843" cy="452.682651289401" r="4" fill="cyan"/><text x="429.31491635291843" y="447.682651289401" fill="cyan" font-size="12" stroke="black" stroke-width=".3">T2</text></g><g><title>3: Main_DartsAndBilliard</title><circle cx="376.48948854821884" cy="93.40745872571699" r="4" fill="cyan"/><text x="381.48948854821884" y="88.40745872571699" fill="cyan" font-size="12" stroke="black" stroke-width=".3">T3</text></g><g><title>4: Main_JazzClub</title><circle cx="561.3092692503266" cy="215.3629473613289" r="4" fill="cyan"/><text x="566.3092692503266" y="210.3629473613289" fill="cyan" font-size="12" stroke="black" stroke-width=".3">T4</text></g><g><title>5: Main_Shop_Accessories</title><circle cx="349.181729146573" cy="101.55927651273532" r="4" fill="cyan"/><text x="354.181729146573" y="96.55927651273532" fill="cyan" font-size="12" stroke="black" stroke-width=".3">T5</text></g><g><title>6: Main_Shop_Variety</title><circle cx="354.89761346262617" cy="227.84939643890533" r="4" fill="cyan"/><text x="359.89761346262617" y="222.84939643890533" fill="cyan" font-size="12" stroke="black" stroke-width=".3">T6</text></g><g><title>7: Main_Cafe</title><circle cx="494.5927231396455" cy="115.18732254395712" r="4" fill="cyan"/><text x="499.5927231396455" y="110.18732254395712" fill="cyan" font-size="12" stroke="black" stroke-width=".3">T7</text></g><g><title>8: Main_Shop_Megane</title><circle cx="320.3400718722148" cy="103.08133287537436" r="4" fill="cyan"/><text x="325.3400718722148" y="98.08133287537436" fill="cyan" font-size="12" stroke="black" stroke-width=".3">T8</text></g><g><title>9: Main_Deadend_meat</title><circle cx="579.2904758452285" cy="483.1375534397331" r="4" fill="cyan"/><text x="584.2904758452285" y="478.1375534397331" fill="cyan" font-size="12" stroke="black" stroke-width=".3">T9</text></g><g><title>10: Main_Deadend_Izakaya</title><circle cx="281.5446640580583" cy="338.2178087933489" r="4" fill="cyan"/><text x="286.5446640580583" y="333.2178087933489" fill="cyan" font-size="12" stroke="black" stroke-width=".3">T10</text></g><g><title>11: Main_Deadend_Megane</title><circle cx="246.5185884709078" cy="133.81808483811665" r="4" fill="cyan"/><text x="251.5185884709078" y="128.81808483811665" fill="cyan" font-size="12" stroke="black" stroke-width=".3">T11</text></g><g><title>12: Main_Deadend_Cafe</title><circle cx="596.5197939087066" cy="129.6354060858253" r="4" fill="cyan"/><text x="601.5197939087066" y="124.63540608582531" fill="cyan" font-size="12" stroke="black" stroke-width=".3">T12</text></g><g><title>13: Main_Deadend_Jazz</title><circle cx="628.7019854082951" cy="231.4359825379958" r="4" fill="cyan"/><text x="633.7019854082951" y="226.4359825379958" fill="cyan" font-size="12" stroke="black" stroke-width=".3">T13</text></g><g><title>14: CHK_VELVET_DOOR</title><circle cx="173.90158593919546" cy="445.92833284144245" r="4" fill="cyan"/><text x="178.90158593919546" y="440.92833284144245" fill="cyan" font-size="12" stroke="black" stroke-width=".3">T14</text></g><g><title>15: MAIN_FoodShop</title><circle cx="442.0244878659186" cy="236.78791154361704" r="4" fill="cyan"/><text x="447.0244878659186" y="231.78791154361704" fill="cyan" font-size="12" stroke="black" stroke-width=".3">T15</text></g><g><title>16: MAIN_Stationer</title><circle cx="325.6744949330357" cy="492.76130891308713" r="4" fill="cyan"/><text x="330.6744949330357" y="487.76130891308713" fill="cyan" font-size="12" stroke="black" stroke-width=".3">T16</text></g><g><title>17: MAIN_OldClothesShop</title><circle cx="421.8406451753072" cy="488.90785870745725" r="4" fill="cyan"/><text x="426.8406451753072" y="483.90785870745725" fill="cyan" font-size="12" stroke="black" stroke-width=".3">T17</text></g><g><title>18: MAIN_KasaHit_ShopToGate</title><circle cx="193.56839394820426" cy="472.79121880795435" r="4" fill="cyan"/><text x="198.56839394820426" y="467.79121880795435" fill="cyan" font-size="12" stroke="black" stroke-width=".3">T18</text></g><g><title>19: MAIN_KasaHit_GateToShop</title><circle cx="206.69575902180358" cy="468.20098490468666" r="4" fill="cyan"/><text x="211.69575902180358" y="463.20098490468666" fill="cyan" font-size="12" stroke="black" stroke-width=".3">T19</text></g><g><title>20: MAIN_KasaHit_ShopToRetro</title><circle cx="454.43520283602555" cy="434.63988485603466" r="4" fill="cyan"/><text x="459.43520283602555" y="429.63988485603466" fill="cyan" font-size="12" stroke="black" stroke-width=".3">T20</text></g><g><title>21: MAIN_KasaHit_RetroToShop</title><circle cx="451.76629226813446" cy="446.9972031792507" r="4" fill="cyan"/><text x="456.76629226813446" y="441.9972031792507" fill="cyan" font-size="12" stroke="black" stroke-width=".3">T21</text></g><g><title>22: MAIN_KasaHit_NorenToRetro</title><circle cx="419.41658739045664" cy="321.5632262866486" r="4" fill="cyan"/><text x="424.41658739045664" y="316.5632262866486" fill="cyan" font-size="12" stroke="black" stroke-width=".3">T22</text></g><g><title>23: MAIN_KasaHit_RetroToNoren</title><circle cx="405.3621102924322" cy="322.77889346278243" r="4" fill="cyan"/><text x="410.3621102924322" y="317.77889346278243" fill="cyan" font-size="12" stroke="black" stroke-width=".3">T23</text></g><g><title>24: MAIN_KasaHit_NorenToOsyare</title><circle cx="307.8438972697493" cy="149.39407929378626" r="4" fill="cyan"/><text x="312.8438972697493" y="144.39407929378626" fill="cyan" font-size="12" stroke="black" stroke-width=".3">T24</text></g><g><title>25: MAIN_KasaHit_OsyareToNoren</title><circle cx="309.68290419210643" cy="161.85937437827067" r="4" fill="cyan"/><text x="314.68290419210643" y="156.85937437827067" fill="cyan" font-size="12" stroke="black" stroke-width=".3">T25</text></g><g><title>26: Main_Dagashi</title><circle cx="233.58888980838714" cy="490.9590441644776" r="4" fill="cyan"/><text x="238.58888980838714" y="485.9590441644776" fill="cyan" font-size="12" stroke="black" stroke-width=".3">T26</text></g><g><title>27: Main_Bank</title><circle cx="235.05301485168695" cy="451.0034671593875" r="4" fill="cyan"/><text x="240.05301485168695" y="446.0034671593875" fill="cyan" font-size="12" stroke="black" stroke-width=".3">T27</text></g><g><title>28: Main_EthnicCafe</title><circle cx="293.84946064104" cy="451.5232847472084" r="4" fill="cyan"/><text x="298.84946064104" y="446.5232847472084" fill="cyan" font-size="12" stroke="black" stroke-width=".3">T28</text></g><g><title>29: Main_HatShop</title><circle cx="274.9861372211998" cy="491.65351694655624" r="4" fill="cyan"/><text x="279.9861372211998" y="486.65351694655624" fill="cyan" font-size="12" stroke="black" stroke-width=".3">T29</text></g><g><title>30: Main_Taiyaki</title><circle cx="338.4513075631335" cy="451.97832408993474" r="4" fill="cyan"/><text x="343.4513075631335" y="446.97832408993474" fill="cyan" font-size="12" stroke="black" stroke-width=".3">T30</text></g><g><title>31: Main_Japanese_TeaHouse</title><circle cx="363.52014665427544" cy="452.10437900058025" r="4" fill="cyan"/><text x="368.52014665427544" y="447.10437900058025" fill="cyan" font-size="12" stroke="black" stroke-width=".3">T31</text></g><g><title>32: Main_SocksShop</title><circle cx="381.0246345787815" cy="451.7182698037343" r="4" fill="cyan"/><text x="386.0246345787815" y="446.7182698037343" fill="cyan" font-size="12" stroke="black" stroke-width=".3">T32</text></g><g><title>33: Main_TelephoneShop</title><circle cx="374.7127503730681" cy="490.21545162295916" r="4" fill="cyan"/><text x="379.7127503730681" y="485.21545162295916" fill="cyan" font-size="12" stroke="black" stroke-width=".3">T33</text></g><g><title>34: Main_IceShop</title><circle cx="487.5312733968568" cy="492.67291307055376" r="4" fill="cyan"/><text x="492.5312733968568" y="487.67291307055376" fill="cyan" font-size="12" stroke="black" stroke-width=".3">T34</text></g><g><title>35: Main_Fudousan</title><circle cx="523.580200794007" cy="493.0538402030838" r="4" fill="cyan"/><text x="528.580200794007" y="488.0538402030838" fill="cyan" font-size="12" stroke="black" stroke-width=".3">T35</text></g><g><title>36: Main_EthnicShop</title><circle cx="465.25197067598015" cy="391.09729211019237" r="4" fill="cyan"/><text x="470.25197067598015" y="386.09729211019237" fill="cyan" font-size="12" stroke="black" stroke-width=".3">T36</text></g><g><title>37: Main_Realtor</title><circle cx="466.70029271779356" cy="329.3398653512796" r="4" fill="cyan"/><text x="471.70029271779356" y="324.3398653512796" fill="cyan" font-size="12" stroke="black" stroke-width=".3">T37</text></g><g><title>38: Main_Karaoke</title><circle cx="470.88202625842894" cy="264.7624894511987" r="4" fill="cyan"/><text x="475.88202625842894" y="259.7624894511987" fill="cyan" font-size="12" stroke="black" stroke-width=".3">T38</text></g><g><title>39: Main_RecordShop</title><circle cx="497.19818735159356" cy="224.5287194701151" r="4" fill="cyan"/><text x="502.19818735159356" y="219.5287194701151" fill="cyan" font-size="12" stroke="black" stroke-width=".3">T39</text></g><g><title>40: Main_MusicTool</title><circle cx="525.3127190775789" cy="224.77094362735227" r="4" fill="cyan"/><text x="530.3127190775789" y="219.77094362735227" fill="cyan" font-size="12" stroke="black" stroke-width=".3">T40</text></g><g><title>41: Main_Pasta</title><circle cx="525.1158650798243" cy="149.95445700739447" r="4" fill="cyan"/><text x="530.1158650798243" y="144.95445700739447" fill="cyan" font-size="12" stroke="black" stroke-width=".3">T41</text></g><g><title>42: Main_Bicycle</title><circle cx="541.7308424369763" cy="115.77679090390012" r="4" fill="cyan"/><text x="546.7308424369763" y="110.77679090390012" fill="cyan" font-size="12" stroke="black" stroke-width=".3">T42</text></g><g><title>43: Main_ToyShop</title><circle cx="441.3101187690669" cy="116.02201474110308" r="4" fill="cyan"/><text x="446.3101187690669" y="111.02201474110308" fill="cyan" font-size="12" stroke="black" stroke-width=".3">T43</text></g><g><title>44: Main_SteakFood</title><circle cx="399.61659437213365" cy="149.70354627692308" r="4" fill="cyan"/><text x="404.61659437213365" y="144.70354627692308" fill="cyan" font-size="12" stroke="black" stroke-width=".3">T44</text></g><g><title>45: Main_WineBar</title><circle cx="427.6120333353107" cy="149.87155960167337" r="4" fill="cyan"/><text x="432.6120333353107" y="144.87155960167337" fill="cyan" font-size="12" stroke="black" stroke-width=".3">T45</text></g><g><title>46: Main_AntiqueStore</title><circle cx="372.7955730797276" cy="150.01713782001286" r="4" fill="cyan"/><text x="377.7955730797276" y="145.01713782001286" fill="cyan" font-size="12" stroke="black" stroke-width=".3">T46</text></g><g><title>47: Main_DonutShop</title><circle cx="333.05297725804155" cy="149.08611215063235" r="4" fill="cyan"/><text x="338.05297725804155" y="144.08611215063235" fill="cyan" font-size="12" stroke="black" stroke-width=".3">T47</text></g><g><title>48: Main_SportsShop</title><circle cx="404.07748562958494" cy="97.09972105026878" r="4" fill="cyan"/><text x="409.07748562958494" y="92.09972105026878" fill="cyan" font-size="12" stroke="black" stroke-width=".3">T48</text></g><g><title>49: Main_Realtor_Sofa</title><circle cx="463.0734374774957" cy="349.33140433991787" r="4" fill="cyan"/><text x="468.0734374774957" y="344.33140433991787" fill="cyan" font-size="12" stroke="black" stroke-width=".3">T49</text></g><g><title>50: Main_Realtor_Chair</title><circle cx="462.8531406683418" cy="312.82695522963" r="4" fill="cyan"/><text x="467.8531406683418" y="307.82695522963" fill="cyan" font-size="12" stroke="black" stroke-width=".3">T50</text></g><g><title>51: Main_JuiceMachine01</title><circle cx="439.07266216958783" cy="397.0993470667314" r="4" fill="cyan"/><text x="444.07266216958783" y="392.0993470667314" fill="cyan" font-size="12" stroke="black" stroke-width=".3">T51</text></g><g><title>52: Main_JuiceMachine02</title><circle cx="439.1087833158425" cy="362.5232000394489" r="4" fill="cyan"/><text x="444.1087833158425" y="357.5232000394489" fill="cyan" font-size="12" stroke="black" stroke-width=".3">T52</text></g><g><title>53: Main_CoinLocker</title><circle cx="438.9156554830454" cy="375.11245064918614" r="4" fill="cyan"/><text x="443.9156554830454" y="370.11245064918614" fill="cyan" font-size="12" stroke="black" stroke-width=".3">T53</text></g><g><title>54: Main_Temple</title><circle cx="548.0648072947296" cy="457.3521667732227" r="4" fill="cyan"/><text x="553.0648072947296" y="452.3521667732227" fill="cyan" font-size="12" stroke="black" stroke-width=".3">T54</text></g><g><title>55: Main_Cafe_SetAkechi</title><circle cx="502.93202873619197" cy="115.2131635369957" r="4" fill="cyan"/><text x="507.93202873619197" y="110.2131635369957" fill="cyan" font-size="12" stroke="black" stroke-width=".3">T55</text></g><g><title>56: Main_Izakaya01</title><circle cx="308.1917039124488" cy="389.21766452163183" r="4" fill="cyan"/><text x="313.1917039124488" y="384.21766452163183" fill="cyan" font-size="12" stroke="black" stroke-width=".3">T56</text></g><g><title>57: Main_Izakaya02</title><circle cx="306.1881051753023" cy="360.7843855526156" r="4" fill="cyan"/><text x="311.1881051753023" y="355.7843855526156" fill="cyan" font-size="12" stroke="black" stroke-width=".3">T57</text></g><g><title>58: Main_Izakaya03</title><circle cx="315.2893958823241" cy="380.9794418905991" r="4" fill="cyan"/><text x="320.2893958823241" y="375.9794418905991" fill="cyan" font-size="12" stroke="black" stroke-width=".3">T58</text></g><g><title>59: Main_Izakaya04</title><circle cx="315.92938619585755" cy="356.11467282421285" r="4" fill="cyan"/><text x="320.92938619585755" y="351.11467282421285" fill="cyan" font-size="12" stroke="black" stroke-width=".3">T59</text></g><g><title>60: Main_Izakaya04_02</title><circle cx="336.7832511521598" cy="336.4899306397242" r="4" fill="cyan"/><text x="341.7832511521598" y="331.4899306397242" fill="cyan" font-size="12" stroke="black" stroke-width=".3">T60</text></g><g><title>61: Main_Izakaya05</title><circle cx="366.5330944916277" cy="332.7747801321002" r="4" fill="cyan"/><text x="371.5330944916277" y="327.7747801321002" fill="cyan" font-size="12" stroke="black" stroke-width=".3">T61</text></g><g><title>62: Main_Izakaya06</title><circle cx="399.51160166749787" cy="330.0967377259799" r="4" fill="cyan"/><text x="404.51160166749787" y="325.0967377259799" fill="cyan" font-size="12" stroke="black" stroke-width=".3">T62</text></g><g><title>63: Main_Izakaya07</title><circle cx="303.4260756359734" cy="319.3910830314246" r="4" fill="cyan"/><text x="308.4260756359734" y="314.3910830314246" fill="cyan" font-size="12" stroke="black" stroke-width=".3">T63</text></g><g><title>64: Main_Izakaya08</title><circle cx="301.4563365676074" cy="276.72396328809646" r="4" fill="cyan"/><text x="306.4563365676074" y="271.72396328809646" fill="cyan" font-size="12" stroke="black" stroke-width=".3">T64</text></g><g><title>65: Main_Izakaya09</title><circle cx="302.81812487290784" cy="254.3806127129503" r="4" fill="cyan"/><text x="307.81812487290784" y="249.3806127129503" fill="cyan" font-size="12" stroke="black" stroke-width=".3">T65</text></g><g><title>66: Main_Izakaya10</title><circle cx="300.4655360255754" cy="228.43364660557455" r="4" fill="cyan"/><text x="305.4655360255754" y="223.43364660557455" fill="cyan" font-size="12" stroke="black" stroke-width=".3">T66</text></g><g><title>67: Main_Izakaya11</title><circle cx="301.8393113332391" cy="205.1880016707202" r="4" fill="cyan"/><text x="306.8393113332391" y="200.1880016707202" fill="cyan" font-size="12" stroke="black" stroke-width=".3">T67</text></g><g><title>68: Main_Izakaya12</title><circle cx="301.4314407862247" cy="171.42013559588491" r="4" fill="cyan"/><text x="306.4314407862247" y="166.42013559588491" fill="cyan" font-size="12" stroke="black" stroke-width=".3">T68</text></g><g><title>69: Main_Izakaya12_02</title><circle cx="282.23979302012947" cy="150.80286649105062" r="4" fill="cyan"/><text x="287.23979302012947" y="145.80286649105062" fill="cyan" font-size="12" stroke="black" stroke-width=".3">T69</text></g><g><title>70: Main_Izakaya13</title><circle cx="328.11142634440614" cy="324.6248215217273" r="4" fill="cyan"/><text x="333.11142634440614" y="319.6248215217273" fill="cyan" font-size="12" stroke="black" stroke-width=".3">T70</text></g><g><title>71: Main_Izakaya14</title><circle cx="366.0108893411518" cy="321.1790641476971" r="4" fill="cyan"/><text x="371.0108893411518" y="316.1790641476971" fill="cyan" font-size="12" stroke="black" stroke-width=".3">T71</text></g><g><title>72: Main_Izakaya15</title><circle cx="395.11516837681137" cy="319.46259102727566" r="4" fill="cyan"/><text x="400.11516837681137" y="314.46259102727566" fill="cyan" font-size="12" stroke="black" stroke-width=".3">T72</text></g><g><title>73: Main_Izakaya16</title><circle cx="314.81363804691733" cy="275.3554842903724" r="4" fill="cyan"/><text x="319.81363804691733" y="270.3554842903724" fill="cyan" font-size="12" stroke="black" stroke-width=".3">T73</text></g><g><title>74: Main_Udon_1</title><circle cx="487.31988188760135" cy="452.41630079993905" r="4" fill="cyan"/><text x="492.31988188760135" y="447.41630079993905" fill="cyan" font-size="12" stroke="black" stroke-width=".3">T74</text></g><g><title>75: Main_Udon_2</title><circle cx="466.24669267463406" cy="418.75918462800723" r="4" fill="cyan"/><text x="471.24669267463406" y="413.75918462800723" fill="cyan" font-size="12" stroke="black" stroke-width=".3">T75</text></g><g><title>76: Main_DeadEnd_Seacret</title><circle cx="449.8121570037572" cy="520.9000958637957" r="4" fill="cyan"/><text x="454.8121570037572" y="515.9000958637957" fill="cyan" font-size="12" stroke="black" stroke-width=".3">T76</text></g><g><title>77: EX_NPC_0103_HARU</title><circle cx="473.8829951491992" cy="142.40457500017698" r="4" fill="cyan"/><text x="478.8829951491992" y="137.40457500017698" fill="cyan" font-size="12" stroke="black" stroke-width=".3">T77</text></g><g><title>78: Main_JazzBoard</title><circle cx="553.8855769050031" cy="219.19163263099125" r="4" fill="cyan"/><text x="558.8855769050031" y="214.19163263099125" fill="cyan" font-size="12" stroke="black" stroke-width=".3">T78</text></g><g><title>79: EX_0103_0108_LOCK_S</title><circle cx="306.32996504035094" cy="242.865138167632" r="4" fill="cyan"/><text x="311.32996504035094" y="237.865138167632" fill="cyan" font-size="12" stroke="black" stroke-width=".3">T79</text></g><g><title>80: EX_0103_0108_LOCK_N</title><circle cx="307.81974750252476" cy="213.20683364592207" r="4" fill="cyan"/><text x="312.81974750252476" y="208.20683364592207" fill="cyan" font-size="12" stroke="black" stroke-width=".3">T80</text></g><path d="M110.83646568957366,476.4745984132064l8,8m-8,0l8,-8" stroke="orange" stroke-width="2"><title>Ingresso 0</title></path><path d="M372.0918698371292,121.98729530076992l8,8m-8,0l8,-8" stroke="orange" stroke-width="2"><title>Ingresso 1</title></path><path d="M552.0876700898855,231.49678366834397l8,8m-8,0l8,-8" stroke="orange" stroke-width="2"><title>Ingresso 2</title></path><path d="M169.87965077944565,441.6962950974225l8,8m-8,0l8,-8" stroke="orange" stroke-width="2"><title>Ingresso 3</title></path><path d="M165.7984143293306,469.30276969961943l8,8m-8,0l8,-8" stroke="orange" stroke-width="2"><title>Ingresso 4</title></path><path d="M166.97008619929954,447.7299443394345l8,8m-8,0l8,-8" stroke="orange" stroke-width="2"><title>Ingresso 5</title></path><path d="M372.1324280099999,121.92852032144032l8,8m-8,0l8,-8" stroke="orange" stroke-width="2"><title>Ingresso 501</title></path><path d="M531.5666407172868,228.0703211107604l8,8m-8,0l8,-8" stroke="orange" stroke-width="2"><title>Ingresso 502</title></path><path d="M502.2240681353088,460.93853121627404l8,8m-8,0l8,-8" stroke="orange" stroke-width="2"><title>Ingresso 503</title></path><path d="M383.4485781180084,105.59748142104957l8,8m-8,0l8,-8" stroke="orange" stroke-width="2"><title>Ingresso 208</title></path><path d="M356.38332311713816,135.40061424110758l8,8m-8,0l8,-8" stroke="orange" stroke-width="2"><title>Ingresso 880</title></path><path d="M208.81024729539354,476.8225470085345l8,8m-8,0l8,-8" stroke="orange" stroke-width="2"><title>Ingresso 222</title></path><path d="M320.8615113573088,488.0581085465247l8,8m-8,0l8,-8" stroke="orange" stroke-width="2"><title>Ingresso 410</title></path><path d="M418.88575632921976,486.257140534567l8,8m-8,0l8,-8" stroke="orange" stroke-width="2"><title>Ingresso 411</title></path><path d="M420.6809710487431,447.97149278751266l8,8m-8,0l8,-8" stroke="orange" stroke-width="2"><title>Ingresso 412</title></path><path d="M349.3022905026978,225.01281918896836l8,8m-8,0l8,-8" stroke="orange" stroke-width="2"><title>Ingresso 413</title></path><path d="M345.44244547151584,96.17551789518552l8,8m-8,0l8,-8" stroke="orange" stroke-width="2"><title>Ingresso 414</title></path><path d="M372.6716204838497,103.9270346401031l8,8m-8,0l8,-8" stroke="orange" stroke-width="2"><title>Ingresso 415</title></path><path d="M556.0618242145553,215.1593235780265l8,8m-8,0l8,-8" stroke="orange" stroke-width="2"><title>Ingresso 416</title></path><path d="M434.49509097784244,392.87030119101064l8,8m-8,0l8,-8" stroke="orange" stroke-width="2"><title>Ingresso 417</title></path><path d="M434.4574074982723,358.3963541975624l8,8m-8,0l8,-8" stroke="orange" stroke-width="2"><title>Ingresso 418</title></path><path d="M326.67714479680757,221.17271326276955l8,8m-8,0l8,-8" stroke="orange" stroke-width="2"><title>Ingresso 1000</title></path><path d="M445.269605513279,520.0712106642919l8,8m-8,0l8,-8" stroke="orange" stroke-width="2"><title>Ingresso 1001</title></path><path d="M280.75750096974514,334.28092705929566l8,8m-8,0l8,-8" stroke="orange" stroke-width="2"><title>Ingresso 1002</title></path><path d="M467.07690390453945,369.0087922748476l8,8m-8,0l8,-8" stroke="orange" stroke-width="2"><title>Ingresso 1003</title></path><path d="M510.5308225172266,240.05154284076625l8,8m-8,0l8,-8" stroke="orange" stroke-width="2"><title>Ingresso 1004</title></path><path d="M349.856943241163,314.7293098856396l8,8m-8,0l8,-8" stroke="orange" stroke-width="2"><title>Ingresso 1005</title></path><path d="M534.645421618836,144.57097960984146l8,8m-8,0l8,-8" stroke="orange" stroke-width="2"><title>Ingresso 1006</title></path><path d="M351.5757930611407,489.66397823279107l8,8m-8,0l8,-8" stroke="orange" stroke-width="2"><title>Ingresso 1007</title></path><path d="M472.0900487423583,152.9142457213427l8,8m-8,0l8,-8" stroke="orange" stroke-width="2"><title>Ingresso 1008</title></path><path d="M461.5399008943626,116.40545332443781l8,8m-8,0l8,-8" stroke="orange" stroke-width="2"><title>Ingresso 1010</title></path><path d="M358.69869230260343,142.75214241058757l8,8m-8,0l8,-8" stroke="orange" stroke-width="2"><title>Ingresso 1011</title></path><path d="M430.3024367273316,330.3518306274452l8,8m-8,0l8,-8" stroke="orange" stroke-width="2"><title>Ingresso 1012</title></path><path d="M439.12523761502985,180.97093986798774l8,8m-8,0l8,-8" stroke="orange" stroke-width="2"><title>Ingresso 1013</title></path><path d="M497.58931261484065,107.29142569506132l8,8m-8,0l8,-8" stroke="orange" stroke-width="2"><title>Ingresso 1014</title></path><path d="M257.0526237801289,455.78816664335375l8,8m-8,0l8,-8" stroke="orange" stroke-width="2"><title>Ingresso 1015</title></path><path d="M188.33572858559768,493.5996442762332l8,8m-8,0l8,-8" stroke="orange" stroke-width="2"><title>Ingresso 1016</title></path><path d="M396.687265299088,324.62395735611216l8,8m-8,0l8,-8" stroke="orange" stroke-width="2"><title>Ingresso 419</title></path><path d="M438.0845908285664,231.54782509776177l8,8m-8,0l8,-8" stroke="orange" stroke-width="2"><title>Ingresso 420</title></path><path d="M286.2632651252784,137.13796013462434l8,8m-8,0l8,-8" stroke="orange" stroke-width="2"><title>Ingresso 6</title></path><path d="M270.41588556103756,447.73550624603774l8,8m-8,0l8,-8" stroke="orange" stroke-width="2"><title>Ingresso 450</title></path><path d="M320.99432921829384,492.8309655439593l8,8m-8,0l8,-8" stroke="orange" stroke-width="2"><title>Ingresso 451</title></path><path d="M418.66761554004125,492.8270509225456l8,8m-8,0l8,-8" stroke="orange" stroke-width="2"><title>Ingresso 452</title></path><path d="M534.9823700449928,446.91017242545166l8,8m-8,0l8,-8" stroke="orange" stroke-width="2"><title>Ingresso 453</title></path><path d="M426.959113737133,417.7752066002724l8,8m-8,0l8,-8" stroke="orange" stroke-width="2"><title>Ingresso 454</title></path><path d="M433.0476672776855,319.3517698429147l8,8m-8,0l8,-8" stroke="orange" stroke-width="2"><title>Ingresso 455</title></path><path d="M477.5630195215989,227.70537567158974l8,8m-8,0l8,-8" stroke="orange" stroke-width="2"><title>Ingresso 456</title></path><path d="M495.3284132039624,102.27546084560805l8,8m-8,0l8,-8" stroke="orange" stroke-width="2"><title>Ingresso 457</title></path><path d="M371.10791670908156,100.60657639797705l8,8m-8,0l8,-8" stroke="orange" stroke-width="2"><title>Ingresso 458</title></path><path d="M303.9134757839557,161.6357214818634l8,8m-8,0l8,-8" stroke="orange" stroke-width="2"><title>Ingresso 459</title></path><path d="M318.6538445483233,223.60070422174198l8,8m-8,0l8,-8" stroke="orange" stroke-width="2"><title>Ingresso 460</title></path><path d="M321.73494160901294,327.28393918910507l8,8m-8,0l8,-8" stroke="orange" stroke-width="2"><title>Ingresso 461</title></path><path d="M417.8495270402059,440.13443048190413l8,8m-8,0l8,-8" stroke="orange" stroke-width="2"><title>Ingresso 462</title></path><path d="M308.81618318553416,450.42531692785707l8,8m-8,0l8,-8" stroke="orange" stroke-width="2"><title>Ingresso 463</title></path></svg>
